<svg xmlns="http://www.w3.org/2000/svg"  viewBox="0 0 40 40" width="80px" height="80px"><path fill="#ffeea3" d="M20,34.5C9.799,34.5,1.5,28.893,1.5,22S9.799,9.5,20,9.5S38.5,15.107,38.5,22S30.201,34.5,20,34.5z"/><path fill="#f5c276" d="M20,10c9.925,0,18,5.383,18,12s-8.075,12-18,12S2,28.617,2,22S10.075,10,20,10 M20,9 C9.507,9,1,14.82,1,22c0,7.18,8.507,13,19,13s19-5.82,19-13C39,14.82,30.493,9,20,9L20,9z"/><g><path fill="#b0c1d4" d="M8.529,38.5c0.452-7.625,1.362-14.14,2.707-19.371c1.746-6.378,4.689-12.203,8.751-17.315 c3.402,4.581,6.224,10.096,8.176,15.991c2.01,5.894,2.741,11.959,3.287,17.695h-0.155c-2.392-4.343-4.283-7.775-6.522-10.991 c-0.54-0.674-0.906-0.938-1.282-0.938c-0.493,0-0.913,0.221-1.608,0.587l-0.367,0.192c-5.537,3.61-9.951,8.489-12.823,14.149H8.529 z"/><path fill="#66798f" d="M19.974,2.642c3.198,4.431,5.854,9.701,7.717,15.329c1.751,5.131,2.524,10.416,3.055,15.499 c-1.955-3.534-3.627-6.465-5.563-9.246l-0.02-0.028l-0.021-0.027c-0.458-0.57-0.975-1.097-1.652-1.097 c-0.617,0-1.13,0.27-1.84,0.645l-0.365,0.191L21.24,23.93l-0.042,0.027c-5.017,3.273-9.145,7.612-12.044,12.638 c0.482-6.765,1.343-12.587,2.562-17.326C13.388,13.163,16.164,7.575,19.974,2.642 M20,1c-3.839,4.705-7.241,10.676-9.248,18.005 C9.356,24.433,8.436,31.219,8,39h1c2.884-5.81,7.336-10.676,12.745-14.205c0.872-0.452,1.309-0.724,1.745-0.724 c0.174,0,0.436,0.181,0.872,0.724C26.631,28.052,28.557,31.567,31,36h1c-0.611-6.514-1.356-12.471-3.363-18.352 C26.631,11.586,23.664,5.795,20,1L20,1z"/></g></svg>